<?xml version="1.0" standalone="no"?><!DOCTYPE svg PUBLIC "-//W3C//DTD SVG 1.1//EN" "http://www.w3.org/Graphics/SVG/1.1/DTD/svg11.dtd"><svg t="1611241483891" class="icon" viewBox="0 0 1024 1024" version="1.1" xmlns="http://www.w3.org/2000/svg" p-id="721" xmlns:xlink="http://www.w3.org/1999/xlink" width="200" height="200"><defs><style type="text/css"></style></defs><path d="M265.974026 115.033766c-4.987013 0.664935-13.963636 2.161039-19.948052 3.158442-14.794805 2.327273-23.272727 4.322078-40.727273 10.14026-16.955844 5.485714-70.981818 31.750649-102.898701 49.870129-18.950649 10.638961-23.771429 14.462338-40.394805 30.919481-24.935065 24.935065-36.405195 42.555844-45.381818 70.150649-1.828571 5.984416-4.155844 12.135065-4.987013 13.631169-2.161039 3.823377-2.161039 15.792208 0 17.122078 0.997403 0.498701 1.662338 3.490909 1.662337 6.483117 0 21.111688 22.275325 41.724675 40.394805 36.903896 1.994805-0.498701 5.984416 0 8.976624 0.997403 4.654545 1.662338 6.150649 1.32987 14.462338-3.657143 5.153247-3.158442 9.309091-6.815584 9.30909-8.311689 0-3.158442-5.485714-6.316883-12.301298-6.981818-2.992208-0.332468-6.150649-2.327273-8.145455-4.987013-2.992208-3.98961-3.158442-5.153247-1.163636-12.467532 7.314286-28.25974 12.8-38.732468 22.94026-43.885714 9.309091-4.654545 13.797403-8.644156 19.283116-16.955845 6.483117-10.472727 19.283117-22.275325 29.589611-27.594805 4.155844-1.994805 11.137662-7.480519 15.625974-11.968831s9.309091-8.145455 10.971428-8.145455 9.142857-2.825974 16.789611-6.316883c7.480519-3.490909 16.290909-7.314286 19.44935-8.477922 3.158442-1.32987 8.145455-3.158442 10.805195-4.322078 20.446753-8.976623 29.922078-11.968831 44.051948-14.12987 4.987013-0.831169 13.631169-2.161039 19.116883-3.158441 12.467532-2.161039 57.018182-2.161039 68.155845 0 4.654545 0.831169 12.467532 2.327273 17.454545 3.158441s12.135065 2.327273 15.792208 3.324676c3.657143 0.997403 9.309091 2.493506 12.467532 3.324675 9.807792 2.327273 14.12987 3.823377 15.792208 4.987013 3.158442 2.493506 41.225974 21.61039 42.722078 21.610389 2.992208 0 22.109091 14.462338 28.25974 21.277923 18.784416 20.779221 30.254545 52.197403 26.098702 71.97922-2.493506 12.301299-16.457143 40.228571-30.42078 61.34026-12.467532 18.618182-46.711688 54.857143-64.166233 67.657143-28.25974 20.945455-66.327273 43.054545-89.766234 52.363636-2.327273 0.997403-5.485714 2.327273-6.981818 3.158442-1.662338 0.831169-4.488312 1.496104-6.483117 1.496104-2.65974 0-3.158442-0.664935-2.327273-2.992208 3.823377-9.475325 15.625974-45.381818 16.457143-50.701299 0.664935-3.490909 2.65974-10.971429 4.488312-16.623376 3.158442-9.974026 4.987013-21.61039 8.145454-54.358442 0.831169-8.644156 1.163636-31.584416 0.664935-50.701299-1.32987-40.727273-2.825974-47.044156-14.961039-59.511688-7.480519-7.812987-22.607792-18.618182-30.587013-22.109091-3.98961-1.828571-6.316883-2.825974-17.122078-7.148052-8.81039-3.490909-22.774026-1.662338-33.745454 4.322078-2.825974 1.662338-3.657143 4.155844-4.488312 13.298701-0.498701 6.150649-2.493506 16.124675-4.488312 22.109091-4.987013 14.961039-9.641558 30.254545-13.464935 44.384416-6.815584 26.264935-10.14026 38.067532-11.47013 42.888312-10.472727 36.405195-13.464935 51.366234-19.116883 94.753246-0.664935 4.488312-2.992208 16.124675-5.153246 25.766234-9.974026 41.724675-13.298701 59.012987-17.288312 87.272727-0.997403 7.314286-2.493506 16.290909-3.324675 19.948052-6.649351 30.254545-8.644156 39.064935-9.974026 44.051948-2.65974 9.807792-9.807792 40.228571-11.802598 49.87013-0.997403 4.987013-2.493506 12.135065-3.324675 15.792208-2.161039 9.142857-4.488312 21.61039-6.483117 32.415584-0.831169 4.987013-2.327273 13.631169-3.324675 19.116884-2.65974 14.296104-4.987013 29.58961-6.649351 44.883116-0.831169 7.314286-2.493506 18.119481-3.490909 24.103897-2.493506 12.633766-2.493506 21.61039-0.166234 63.168831 1.828571 34.41039 4.987013 50.036364 15.293507 73.142857 2.493506 5.984416 5.651948 13.298701 6.64935 16.124675 1.163636 3.158442 3.158442 5.485714 4.82078 5.485714 7.812987 0 36.737662-42.888312 36.737662-54.690909 0-6.316883 2.493506-7.979221 5.31948-3.490909 1.163636 1.828571 2.65974 3.324675 3.490909 3.324676 2.65974 0 11.137662-20.779221 11.137663-27.594806 0-8.145455 7.148052-49.703896 10.472727-61.340259 2.992208-10.306494 5.485714-22.774026 7.979221-39.896104 3.324675-24.103896 6.316883-38.898701 9.142857-45.215585 1.662338-3.823377 2.65974-10.472727 2.493507-17.288311-0.166234-11.303896 1.662338-17.787013 13.797402-52.197403 3.324675-9.142857 5.984416-18.119481 5.984416-19.948052 0-1.828571 1.496104-8.145455 3.490909-14.12987 5.651948-16.955844 6.815584-19.948052 7.979221-19.948052 0.664935 0 3.490909 7.646753 6.483116 16.955844 2.992208 9.475325 8.477922 23.438961 12.301299 31.085715 6.150649 12.966234 8.81039 16.124675 36.903896 43.71948 34.244156 33.911688 46.877922 44.384416 80.789611 66.493507 60.01039 39.231169 70.150649 44.550649 99.740259 52.197402 4.987013 1.32987 12.966234 3.98961 17.787013 5.818182 6.483117 2.65974 9.309091 2.992208 11.802598 1.662338 2.161039-1.163636 8.311688-1.32987 18.618182-0.332468 19.116883 1.828571 48.706494-2.327273 63.833766-8.644156 3.490909-1.662338 7.979221-2.825974 10.14026-2.825974 11.968831 0 53.361039-19.116883 70.483116-32.415584 6.483117-5.153247 11.802597-9.974026 11.802598-10.805195 0-0.664935 4.322078-5.651948 9.641558-11.137662 13.132468-13.298701 23.106494-25.766234 25.267533-31.085715 0.831169-2.493506 1.662338-9.309091 1.662337-15.127272 0-9.309091-0.498701-10.805195-4.155844-13.132468-4.820779-3.158442-21.277922-3.657143-23.771428-0.664935-0.831169 1.163636-2.65974 4.987013-3.823377 8.644156-2.825974 7.979221-16.623377 20.779221-28.592208 26.763636-4.820779 2.327273-13.631169 4.987013-19.615584 5.984416-17.122078 2.992208-82.618182-0.664935-97.08052-5.153247-16.457143-5.153247-27.096104-8.644156-30.254545-10.14026-7.812987-3.158442-11.636364-4.654545-25.433766-9.807792-23.438961-8.644156-82.451948-38.732468-98.576624-50.202597-22.441558-16.124675-55.18961-43.553247-56.685714-47.376624-1.32987-3.324675 0.498701-4.488312 11.47013-7.97922 8.145455-2.65974 22.441558-7.812987 30.753247-11.137663 4.987013-1.994805 5.651948-2.327273 26.098701-13.298701 8.976623-4.654545 19.283117-9.974026 22.774026-11.802597 3.490909-1.662338 7.979221-4.488312 9.807792-6.316884 1.994805-1.662338 5.485714-3.158442 7.812987-3.158441 2.65974 0 6.150649-1.828571 8.477922-4.322078 2.161039-2.327273 7.314286-6.150649 11.47013-8.644156 4.155844-2.327273 10.472727-6.981818 14.12987-10.306493 7.314286-6.649351 18.950649-15.792208 21.61039-16.789611 7.314286-2.992208 21.942857-13.132468 30.254545-21.277922 9.309091-8.976623 35.075325-44.883117 45.548052-63.335065 6.483117-11.636364 16.124675-48.54026 19.449351-75.636363 4.654545-36.238961-14.462338-86.607792-51.698701-136.644156-31.916883-42.888312-63.335065-69.651948-105.890909-90.597403-30.753247-14.961039-37.735065-17.953247-42.057143-17.953247-1.994805 0-7.314286-1.32987-11.968832-2.992207-21.277922-7.979221-97.412987-12.966234-125.506493-8.311689zM239.376623 643.324675c0 1.828571-0.664935 3.324675-1.662337 3.324676-0.831169 0-1.662338-1.496104-1.662338-3.324676s0.831169-3.324675 1.662338-3.324675c0.997403 0 1.662338 1.496104 1.662337 3.324675z m-3.324675 8.145455c0 0.997403-0.664935 2.161039-1.662338 2.65974-0.831169 0.498701-1.662338-0.166234-1.662337-1.496104 0-1.496104 0.831169-2.65974 1.662337-2.65974 0.997403 0 1.662338 0.664935 1.662338 1.496104z m-4.987013 11.802597c-1.994805 4.820779-4.987013 6.815584-4.987013 3.324676 0-2.493506 5.319481-10.306494 6.316883-9.309091 0.332468 0.498701-0.166234 3.158442-1.32987 5.984415z m-35.241558 93.922078c-1.994805 5.485714-5.319481 12.8-7.646754 16.290909-3.823377 5.818182-5.651948 11.636364-8.145454 26.597403-1.662338 10.472727-4.155844 9.309091-3.324675-1.496104 1.828571-19.116883 5.153247-36.405195 7.148051-37.735065 1.32987-0.664935 4.654545-4.654545 7.48052-8.81039 6.815584-9.974026 8.976623-7.480519 4.488312 5.153247z m-19.615585 83.116883c0 6.150649-0.664935 10.805195-1.662337 10.805195-1.828571 0-2.327273-18.784416-0.498702-20.446753 1.994805-2.161039 2.161039-1.163636 2.161039 9.641558z" p-id="722" fill="#f13b58"></path><path d="M711.812987 311.688312c-4.488312 1.994805-6.649351 4.987013-12.633766 17.787013-7.314286 15.958442-12.8 29.423377-15.792208 39.563636-0.997403 3.158442-3.823377 12.135065-6.150649 19.948052-2.327273 7.812987-4.987013 16.290909-5.651948 19.116883-0.831169 2.65974-3.657143 12.8-6.483117 22.441559-11.636364 39.231169-17.620779 67.324675-22.441559 105.890909-3.324675 25.6-3.490909 30.254545-1.662337 44.051948 3.98961 31.251948 12.8 47.21039 29.755844 54.690909 6.649351 2.992208 10.971429 3.490909 26.92987 3.324675 12.8-0.166234 20.280519-0.831169 23.438961-2.493506 5.651948-2.992208 12.467532-10.306494 15.958441-17.122078 1.496104-2.992208 4.322078-7.148052 6.483117-9.309091 4.987013-5.485714 19.615584-31.584416 22.94026-41.05974 1.496104-4.155844 4.155844-10.805195 6.150649-14.961039 1.828571-4.155844 5.651948-13.464935 8.644156-20.779221 16.955844-42.888312 25.6-59.345455 22.607793-42.888312-1.163636 6.316883-2.493506 15.45974-5.818182 38.732468-6.815584 47.376623-9.142857 117.194805-4.987013 144.955844 2.327273 15.127273 9.142857 35.075325 13.797402 40.893506 1.994805 2.493506 5.651948 7.979221 8.145455 12.135065 4.654545 8.145455 12.301299 13.132468 20.114286 13.132468 2.493506 0 11.968831-1.828571 21.277922-4.155844 9.309091-2.327273 18.451948-4.155844 20.612987-4.155845 4.654545 0 7.480519-4.155844 11.968831-16.955844 1.828571-5.153247 5.319481-11.968831 7.646753-14.961039 4.987013-6.815584 8.81039-15.625974 11.968831-27.927272 3.657143-13.963636 8.311688-25.433766 25.766234-63.168832 9.974026-21.776623 15.792208-37.402597 23.106494-63.168831 1.994805-6.815584 4.322078-14.296104 4.987012-16.623376 0.664935-2.327273 2.161039-7.148052 3.158442-10.805195 6.483117-23.771429 13.963636-48.872727 18.451948-63.168831 2.992208-9.142857 5.984416-19.615584 6.649351-23.272728 0.831169-3.657143 2.161039-9.309091 3.158441-12.467532 0.831169-3.158442 3.657143-13.298701 5.984416-22.441559s4.987013-18.950649 5.818182-21.776623c4.488312-14.12987 0.498701-18.285714-15.958442-16.78961-17.122078 1.662338-21.444156 4.322078-27.096104 16.457143-7.979221 17.620779-8.477922 19.449351-8.477922 29.922077 0 5.651948-1.32987 14.462338-3.158441 19.449351-1.662338 5.153247-3.98961 12.633766-5.319481 16.789611-2.327273 8.311688-7.646753 20.446753-27.428571 62.836363-3.98961 8.644156-7.314286 15.792208-7.314286 16.124675 0 0.332468-2.992208 7.148052-6.815584 15.293507-10.638961 23.106494-10.638961 23.272727-20.612987 48.706493-5.153247 13.298701-10.14026 25.6-10.805195 27.428572-0.831169 1.828571-5.319481 13.631169-10.306494 26.098701-10.14026 26.264935-12.8 28.592208-15.792208 13.298702-4.654545-22.607792-3.98961-67.324675 1.163637-96.748052 0.997403-4.987013 2.493506-19.283117 3.324675-31.584416 1.496104-21.277922 2.65974-30.420779 6.649351-57.350649 2.161039-15.625974 3.823377-22.109091 7.480519-29.755845 3.823377-7.979221 3.823377-15.293506 0.166234-18.950649-3.324675-3.324675-17.288312-6.815584-27.761039-6.981818-9.641558 0-17.122078 4.820779-22.607792 14.794805-2.161039 3.98961-7.646753 10.306494-11.802598 14.12987-12.8 11.137662-27.927273 26.431169-31.251948 31.75065-1.828571 2.65974-9.475325 12.467532-16.955844 21.610389-7.646753 9.142857-19.615584 24.27013-26.597402 33.579221-12.301299 16.457143-12.8 16.78961-13.298702 11.968831-0.332468-2.825974 0.997403-11.303896 2.825974-18.784415 1.828571-7.314286 4.488312-18.285714 5.818182-24.27013 1.496104-5.984416 4.155844-16.124675 6.15065-22.441559 1.828571-6.483117 5.818182-21.444156 8.976623-33.246753 2.992208-11.968831 6.815584-26.098701 8.311688-31.584416 1.496104-5.485714 3.324675-12.966234 4.155844-16.623376s3.823377-14.961039 6.815585-24.935065c2.825974-10.14026 5.651948-22.774026 5.984415-28.25974 0.831169-12.135065-1.662338-16.290909-13.797402-22.441559-10.14026-5.153247-30.088312-6.483117-38.566234-2.493506zM253.007792 666.763636c-0.831169 2.161039-2.825974 6.815584-4.322078 10.472728-2.825974 6.815584-3.657143 17.620779-1.32987 17.620779 1.994805 0 5.319481-7.646753 5.319481-12.301299 0-2.161039 1.163636-6.649351 2.65974-10.14026 1.662338-4.322078 1.994805-6.815584 0.831169-7.97922-1.163636-1.163636-2.161039-0.498701-3.158442 2.327272zM232.394805 729.766234c-5.984416 12.633766-8.976623 30.088312-5.651948 31.251948 2.493506 0.831169 9.475325-22.94026 8.976624-30.420779l-0.498702-6.649351-2.825974 5.818182zM222.919481 807.563636c-6.483117 12.633766-8.477922 20.280519-5.485715 20.28052 3.158442 0 7.480519-6.981818 11.303896-18.451948 5.651948-16.955844 2.65974-17.953247-5.818181-1.828572z" p-id="723" fill="#f13b58"></path></svg>